ffmpeg started on 2025-05-28 at 20:15:08
Report written to "D:\Convert\FFMetrics\reports\psnr_report-6.txt"
Log level: 32
Command line:
ffmpeg -hide_banner -nostdin -i "G:\\\xc0\xed\xe8\xec\xe5\\\xce\xed\xe3\xee\xe8\xed\xe3\xe8\\!_36_\xce\xf1\xe5\xed\xfc_2024\\JamClub\\\xc8\xf1\xf2\xee\xf0\xe8\xff \xee \xf2\xee\xec, \xea\xe0\xea \xff \xef\xf0\xe8\xf8\xb8\xeb \xed\xe0 \xe2\xe5\xf7\xe5\xf0\xe8\xed\xea\xf3, \xe0 \xf2\xe0\xec \xed\xe5 \xe1\xfb\xeb\xee \xed\xe8 \xee\xe4\xed\xee\xe9 \xe6\xe5\xed\xf9\xe8\xed\xfb\\JamClub_Goukon_ni_Ittara_Onna_ga_Inakatta_Hanashi_01_1080p_HEVC.mkv" -i "G:\\\xc0\xed\xe8\xec\xe5\\\xce\xed\xe3\xee\xe8\xed\xe3\xe8\\!_36_\xce\xf1\xe5\xed\xfc_2024\\JamClub\\\xc8\xf1\xf2\xee\xf0\xe8\xff \xee \xf2\xee\xec, \xea\xe0\xea \xff \xef\xf0\xe8\xf8\xb8\xeb \xed\xe0 \xe2\xe5\xf7\xe5\xf0\xe8\xed\xea\xf3, \xe0 \xf2\xe0\xec \xed\xe5 \xe1\xfb\xeb\xee \xed\xe8 \xee\xe4\xed\xee\xe9 \xe6\xe5\xed\xf9\xe8\xed\xfb\\JamClub_Goukon_ni_Ittara_Onna_ga_Inakatta_Hanashi_01_1080p.mp4" -lavfi "[0:v]settb=AVTB,setpts=PTS-STARTPTS,format=pix_fmts=yuv420p10,fps=24000/1001,scale=1920:1080:flags=bicubic[main];[1:v]settb=AVTB,setpts=PTS-STARTPTS,format=pix_fmts=yuv420p,fps=24000/1001,scale=1920:1080:flags=bicubic[ref];[main][ref]psnr=eof_action=endall:stats_file='D\\:/Convert/FFMetrics/logs/psnr_logfile-6.txt'" -f null -
Input #0, matroska,webm, from 'G:\Аниме\Онгоинги\!_36_Осень_2024\JamClub\История о том, как я пришёл на вечеринку, а там не было ни одной женщины\JamClub_Goukon_ni_Ittara_Onna_ga_Inakatta_Hanashi_01_1080p_HEVC.mkv':
  Metadata:
    COMPATIBLE_BRANDS: isomiso2avc1mp41
    MAJOR_BRAND     : isom
    MINOR_VERSION   : 512
    ENCODER         : Lavf61.7.100
  Duration: 00:24:03.69, start: -0.001000, bitrate: 900 kb/s
  Stream #0:0: Video: hevc (Main 10), yuv420p10le(tv, bt709, progressive), 1920x1080 [SAR 1:1 DAR 16:9], 23.98 fps, 23.98 tbr, 1k tbn (default)
      Metadata:
        HANDLER_NAME    : VideoHandler
        VENDOR_ID       : [0][0][0][0]
        ENCODER         : Lavc61.19.100 libx265
        BPS             : 703058
        DURATION        : 00:24:03.650708333
        NUMBER_OF_FRAMES: 34613
        NUMBER_OF_BYTES : 126871279
        _STATISTICS_WRITING_APP: mkvpropedit v66.0.0 ('Josie') 64-bit
        _STATISTICS_WRITING_DATE_UTC: 2025-05-28 09:27:21
        _STATISTICS_TAGS: BPS DURATION NUMBER_OF_FRAMES NUMBER_OF_BYTES
  Stream #0:1(eng): Audio: aac (LC), 48000 Hz, stereo, fltp (default)
      Metadata:
        HANDLER_NAME    : SoundHandler
        VENDOR_ID       : [0][0][0][0]
        ENCODER         : Lavc61.19.100 aac
        BPS             : 193285
        DURATION        : 00:24:03.651000000
        NUMBER_OF_FRAMES: 67672
        NUMBER_OF_BYTES : 34879622
        _STATISTICS_WRITING_APP: mkvpropedit v66.0.0 ('Josie') 64-bit
        _STATISTICS_WRITING_DATE_UTC: 2025-05-28 09:27:21
        _STATISTICS_TAGS: BPS DURATION NUMBER_OF_FRAMES NUMBER_OF_BYTES
Input #1, mov,mp4,m4a,3gp,3g2,mj2, from 'G:\Аниме\Онгоинги\!_36_Осень_2024\JamClub\История о том, как я пришёл на вечеринку, а там не было ни одной женщины\JamClub_Goukon_ni_Ittara_Onna_ga_Inakatta_Hanashi_01_1080p.mp4':
  Metadata:
    major_brand     : isom
    minor_version   : 512
    compatible_brands: isomiso2avc1mp41
    encoder         : Lavf60.16.100
  Duration: 00:24:03.67, start: 0.000000, bitrate: 2736 kb/s
  Stream #1:0[0x1](und): Video: h264 (High) (avc1 / 0x31637661), yuv420p(progressive), 1920x1080 [SAR 1:1 DAR 16:9], 2538 kb/s, 23.98 fps, 23.98 tbr, 90k tbn (default)
      Metadata:
        handler_name    : VideoHandler
        vendor_id       : [0][0][0][0]
  Stream #1:1[0x2](eng): Audio: aac (LC) (mp4a / 0x6134706D), 48000 Hz, stereo, fltp, 191 kb/s (default)
      Metadata:
        handler_name    : SoundHandler
        vendor_id       : [0][0][0][0]
Stream mapping:
  Stream #0:0 (hevc) -> settb:default
  Stream #1:0 (h264) -> settb:default
  psnr:default -> Stream #0:0 (wrapped_avframe)
  Stream #0:1 -> #0:1 (aac (native) -> pcm_s16le (native))
Output #0, null, to 'pipe:':
  Metadata:
    COMPATIBLE_BRANDS: isomiso2avc1mp41
    MAJOR_BRAND     : isom
    MINOR_VERSION   : 512
    encoder         : Lavf61.7.100
  Stream #0:0: Video: wrapped_avframe, yuv420p10le(tv, bt709, progressive), 1920x1080 [SAR 1:1 DAR 16:9], q=2-31, 200 kb/s, 23.98 fps, 23.98 tbn
      Metadata:
        encoder         : Lavc61.19.100 wrapped_avframe
  Stream #0:1(eng): Audio: pcm_s16le, 48000 Hz, stereo, s16, 1536 kb/s (default)
      Metadata:
        HANDLER_NAME    : SoundHandler
        VENDOR_ID       : [0][0][0][0]
        _STATISTICS_TAGS: BPS DURATION NUMBER_OF_FRAMES NUMBER_OF_BYTES
        BPS             : 193285
        DURATION        : 00:24:03.651000000
        NUMBER_OF_FRAMES: 67672
        NUMBER_OF_BYTES : 34879622
        _STATISTICS_WRITING_APP: mkvpropedit v66.0.0 ('Josie') 64-bit
        _STATISTICS_WRITING_DATE_UTC: 2025-05-28 09:27:21
        encoder         : Lavc61.19.100 pcm_s16le
frame=  115 fps=0.0 q=-0.0 size=N/A time=00:00:04.79 bitrate=N/A speed=9.28x    frame=  279 fps=272 q=-0.0 size=N/A time=00:00:11.63 bitrate=N/A speed=11.4x    frame=  478 fps=308 q=-0.0 size=N/A time=00:00:19.93 bitrate=N/A speed=12.9x    frame=  727 fps=353 q=-0.0 size=N/A time=00:00:30.32 bitrate=N/A speed=14.7x    frame=  990 fps=384 q=-0.0 size=N/A time=00:00:41.29 bitrate=N/A speed=  16x    frame= 1252 fps=405 q=-0.0 size=N/A time=00:00:52.21 bitrate=N/A speed=16.9x    frame= 1502 fps=416 q=-0.0 size=N/A time=00:01:02.64 bitrate=N/A speed=17.3x    frame= 1744 fps=424 q=-0.0 size=N/A time=00:01:12.73 bitrate=N/A speed=17.7x    frame= 2024 fps=436 q=-0.0 size=N/A time=00:01:24.41 bitrate=N/A speed=18.2x    frame= 2231 fps=433 q=-0.0 size=N/A time=00:01:33.05 bitrate=N/A speed=18.1x    frame= 2430 fps=428 q=-0.0 size=N/A time=00:01:41.35 bitrate=N/A speed=17.9x    frame= 2699 fps=436 q=-0.0 size=N/A time=00:01:52.57 bitrate=N/A speed=18.2x    frame= 2939 fps=439 q=-0.0 size=N/A time=00:02:02.58 bitrate=N/A speed=18.3x    frame= 3173 fps=439 q=-0.0 size=N/A time=00:02:12.34 bitrate=N/A speed=18.3x    frame= 3400 fps=440 q=-0.0 size=N/A time=00:02:21.80 bitrate=N/A speed=18.3x    frame= 3636 fps=441 q=-0.0 size=N/A time=00:02:31.65 bitrate=N/A speed=18.4x    frame= 3896 fps=445 q=-0.0 size=N/A time=00:02:42.49 bitrate=N/A speed=18.5x    frame= 4123 fps=444 q=-0.0 size=N/A time=00:02:51.96 bitrate=N/A speed=18.5x    frame= 4366 fps=445 q=-0.0 size=N/A time=00:03:02.09 bitrate=N/A speed=18.6x    frame= 4621 fps=448 q=-0.0 size=N/A time=00:03:12.73 bitrate=N/A speed=18.7x    frame= 4904 fps=453 q=-0.0 size=N/A time=00:03:24.53 bitrate=N/A speed=18.9x    frame= 5184 fps=457 q=-0.0 size=N/A time=00:03:36.21 bitrate=N/A speed=19.1x    frame= 5411 fps=456 q=-0.0 size=N/A time=00:03:45.68 bitrate=N/A speed=  19x    frame= 5679 fps=459 q=-0.0 size=N/A time=00:03:56.86 bitrate=N/A speed=19.1x    frame= 5941 fps=461 q=-0.0 size=N/A time=00:04:07.78 bitrate=N/A speed=19.2x    frame= 6226 fps=464 q=-0.0 size=N/A time=00:04:19.67 bitrate=N/A speed=19.4x    frame= 6508 fps=468 q=-0.0 size=N/A time=00:04:31.43 bitrate=N/A speed=19.5x    frame= 6780 fps=470 q=-0.0 size=N/A time=00:04:42.78 bitrate=N/A speed=19.6x    frame= 7042 fps=471 q=-0.0 size=N/A time=00:04:53.71 bitrate=N/A speed=19.6x    frame= 7291 fps=471 q=-0.0 size=N/A time=00:05:04.09 bitrate=N/A speed=19.7x    frame= 7572 fps=474 q=-0.0 size=N/A time=00:05:15.81 bitrate=N/A speed=19.8x    frame= 7823 fps=474 q=-0.0 size=N/A time=00:05:26.28 bitrate=N/A speed=19.8x    frame= 8088 fps=475 q=-0.0 size=N/A time=00:05:37.33 bitrate=N/A speed=19.8x    frame= 8312 fps=474 q=-0.0 size=N/A time=00:05:46.67 bitrate=N/A speed=19.8x    frame= 8563 fps=475 q=-0.0 size=N/A time=00:05:57.14 bitrate=N/A speed=19.8x    frame= 8831 fps=476 q=-0.0 size=N/A time=00:06:08.32 bitrate=N/A speed=19.8x    frame= 9098 fps=477 q=-0.0 size=N/A time=00:06:19.46 bitrate=N/A speed=19.9x    frame= 9378 fps=479 q=-0.0 size=N/A time=00:06:31.14 bitrate=N/A speed=  20x    frame= 9633 fps=479 q=-0.0 size=N/A time=00:06:41.77 bitrate=N/A speed=  20x    frame= 9900 fps=480 q=-0.0 size=N/A time=00:06:52.91 bitrate=N/A speed=  20x    frame=10156 fps=480 q=-0.0 size=N/A time=00:07:03.58 bitrate=N/A speed=  20x    frame=10407 fps=481 q=-0.0 size=N/A time=00:07:14.05 bitrate=N/A speed=  20x    frame=10647 fps=480 q=-0.0 size=N/A time=00:07:24.06 bitrate=N/A speed=  20x    frame=10894 fps=480 q=-0.0 size=N/A time=00:07:34.37 bitrate=N/A speed=  20x    frame=11152 fps=481 q=-0.0 size=N/A time=00:07:45.13 bitrate=N/A speed=  20x    frame=11426 fps=482 q=-0.0 size=N/A time=00:07:56.55 bitrate=N/A speed=20.1x    frame=11670 fps=482 q=-0.0 size=N/A time=00:08:06.73 bitrate=N/A speed=20.1x    frame=11944 fps=482 q=-0.0 size=N/A time=00:08:18.16 bitrate=N/A speed=20.1x    frame=12211 fps=483 q=-0.0 size=N/A time=00:08:29.30 bitrate=N/A speed=20.2x    frame=12440 fps=483 q=-0.0 size=N/A time=00:08:38.85 bitrate=N/A speed=20.1x    frame=12708 fps=483 q=-0.0 size=N/A time=00:08:50.02 bitrate=N/A speed=20.2x    frame=12983 fps=484 q=-0.0 size=N/A time=00:09:01.49 bitrate=N/A speed=20.2x    frame=13217 fps=484 q=-0.0 size=N/A time=00:09:11.30 bitrate=N/A speed=20.2x    frame=13467 fps=484 q=-0.0 size=N/A time=00:09:21.68 bitrate=N/A speed=20.2x    frame=13750 fps=485 q=-0.0 size=N/A time=00:09:33.48 bitrate=N/A speed=20.2x    frame=13956 fps=483 q=-0.0 size=N/A time=00:09:42.08 bitrate=N/A speed=20.2x    frame=14227 fps=484 q=-0.0 size=N/A time=00:09:53.38 bitrate=N/A speed=20.2x    frame=14469 fps=484 q=-0.0 size=N/A time=00:10:03.47 bitrate=N/A speed=20.2x    frame=14711 fps=484 q=-0.0 size=N/A time=00:10:13.57 bitrate=N/A speed=20.2x    frame=14975 fps=484 q=-0.0 size=N/A time=00:10:24.58 bitrate=N/A speed=20.2x    frame=15241 fps=485 q=-0.0 size=N/A time=00:10:35.67 bitrate=N/A speed=20.2x    frame=15472 fps=484 q=-0.0 size=N/A time=00:10:45.31 bitrate=N/A speed=20.2x    frame=15700 fps=483 q=-0.0 size=N/A time=00:10:54.82 bitrate=N/A speed=20.2x    frame=15974 fps=484 q=-0.0 size=N/A time=00:11:06.24 bitrate=N/A speed=20.2x    frame=16229 fps=484 q=-0.0 size=N/A time=00:11:16.88 bitrate=N/A speed=20.2x    frame=16497 fps=485 q=-0.0 size=N/A time=00:11:28.06 bitrate=N/A speed=20.2x    frame=16759 fps=485 q=-0.0 size=N/A time=00:11:38.98 bitrate=N/A speed=20.2x    frame=17034 fps=486 q=-0.0 size=N/A time=00:11:50.45 bitrate=N/A speed=20.3x    frame=17298 fps=486 q=-0.0 size=N/A time=00:12:01.47 bitrate=N/A speed=20.3x    frame=17565 fps=487 q=-0.0 size=N/A time=00:12:12.60 bitrate=N/A speed=20.3x    frame=17818 fps=487 q=-0.0 size=N/A time=00:12:23.15 bitrate=N/A speed=20.3x    frame=18078 fps=487 q=-0.0 size=N/A time=00:12:34.00 bitrate=N/A speed=20.3x    frame=18362 fps=488 q=-0.0 size=N/A time=00:12:45.84 bitrate=N/A speed=20.3x    frame=18565 fps=487 q=-0.0 size=N/A time=00:12:54.31 bitrate=N/A speed=20.3x    frame=18790 fps=486 q=-0.0 size=N/A time=00:13:03.74 bitrate=N/A speed=20.3x    frame=19070 fps=487 q=-0.0 size=N/A time=00:13:15.37 bitrate=N/A speed=20.3x    frame=19325 fps=487 q=-0.0 size=N/A time=00:13:26.01 bitrate=N/A speed=20.3x    frame=19609 fps=488 q=-0.0 size=N/A time=00:13:37.85 bitrate=N/A speed=20.3x    frame=19852 fps=487 q=-0.0 size=N/A time=00:13:47.99 bitrate=N/A speed=20.3x    frame=20136 fps=488 q=-0.0 size=N/A time=00:13:59.83 bitrate=N/A speed=20.4x    frame=20415 fps=489 q=-0.0 size=N/A time=00:14:11.47 bitrate=N/A speed=20.4x    frame=20654 fps=489 q=-0.0 size=N/A time=00:14:21.44 bitrate=N/A speed=20.4x    frame=20928 fps=489 q=-0.0 size=N/A time=00:14:32.87 bitrate=N/A speed=20.4x    frame=21182 fps=489 q=-0.0 size=N/A time=00:14:43.46 bitrate=N/A speed=20.4x    frame=21460 fps=490 q=-0.0 size=N/A time=00:14:55.06 bitrate=N/A speed=20.4x    frame=21740 fps=490 q=-0.0 size=N/A time=00:15:06.73 bitrate=N/A speed=20.4x    frame=22018 fps=491 q=-0.0 size=N/A time=00:15:18.33 bitrate=N/A speed=20.5x    frame=22286 fps=491 q=-0.0 size=N/A time=00:15:29.51 bitrate=N/A speed=20.5x    frame=22553 fps=491 q=-0.0 size=N/A time=00:15:40.64 bitrate=N/A speed=20.5x    frame=22836 fps=492 q=-0.0 size=N/A time=00:15:52.45 bitrate=N/A speed=20.5x    frame=23127 fps=493 q=-0.0 size=N/A time=00:16:04.58 bitrate=N/A speed=20.6x    frame=23382 fps=493 q=-0.0 size=N/A time=00:16:15.22 bitrate=N/A speed=20.6x    frame=23644 fps=493 q=-0.0 size=N/A time=00:16:26.15 bitrate=N/A speed=20.6x    frame=23918 fps=493 q=-0.0 size=N/A time=00:16:37.57 bitrate=N/A speed=20.6x    frame=24192 fps=494 q=-0.0 size=N/A time=00:16:49.00 bitrate=N/A speed=20.6x    frame=24463 fps=494 q=-0.0 size=N/A time=00:17:00.31 bitrate=N/A speed=20.6x    frame=24714 fps=494 q=-0.0 size=N/A time=00:17:10.77 bitrate=N/A speed=20.6x    frame=24970 fps=494 q=-0.0 size=N/A time=00:17:21.45 bitrate=N/A speed=20.6x    frame=25242 fps=494 q=-0.0 size=N/A time=00:17:32.80 bitrate=N/A speed=20.6x    frame=25500 fps=495 q=-0.0 size=N/A time=00:17:43.56 bitrate=N/A speed=20.6x    frame=25756 fps=495 q=-0.0 size=N/A time=00:17:54.23 bitrate=N/A speed=20.6x    frame=26043 fps=495 q=-0.0 size=N/A time=00:18:06.21 bitrate=N/A speed=20.6x    frame=26324 fps=496 q=-0.0 size=N/A time=00:18:17.93 bitrate=N/A speed=20.7x    frame=26611 fps=496 q=-0.0 size=N/A time=00:18:29.90 bitrate=N/A speed=20.7x    frame=26879 fps=496 q=-0.0 size=N/A time=00:18:41.07 bitrate=N/A speed=20.7x    frame=27151 fps=497 q=-0.0 size=N/A time=00:18:52.42 bitrate=N/A speed=20.7x    frame=27413 fps=497 q=-0.0 size=N/A time=00:19:03.35 bitrate=N/A speed=20.7x    frame=27651 fps=497 q=-0.0 size=N/A time=00:19:13.27 bitrate=N/A speed=20.7x    frame=27829 fps=495 q=-0.0 size=N/A time=00:19:20.70 bitrate=N/A speed=20.7x    frame=27939 fps=493 q=-0.0 size=N/A time=00:19:25.28 bitrate=N/A speed=20.5x    frame=28118 fps=491 q=-0.0 size=N/A time=00:19:32.75 bitrate=N/A speed=20.5x    frame=28375 fps=491 q=-0.0 size=N/A time=00:19:43.47 bitrate=N/A speed=20.5x    frame=28633 fps=491 q=-0.0 size=N/A time=00:19:54.23 bitrate=N/A speed=20.5x    frame=28905 fps=492 q=-0.0 size=N/A time=00:20:05.57 bitrate=N/A speed=20.5x    frame=29187 fps=492 q=-0.0 size=N/A time=00:20:17.34 bitrate=N/A speed=20.5x    frame=29455 fps=492 q=-0.0 size=N/A time=00:20:28.51 bitrate=N/A speed=20.5x    frame=29731 fps=493 q=-0.0 size=N/A time=00:20:40.03 bitrate=N/A speed=20.6x    frame=30011 fps=493 q=-0.0 size=N/A time=00:20:51.70 bitrate=N/A speed=20.6x    frame=30288 fps=494 q=-0.0 size=N/A time=00:21:03.26 bitrate=N/A speed=20.6x    frame=30571 fps=494 q=-0.0 size=N/A time=00:21:15.06 bitrate=N/A speed=20.6x    frame=30857 fps=495 q=-0.0 size=N/A time=00:21:26.99 bitrate=N/A speed=20.6x    frame=31097 fps=494 q=-0.0 size=N/A time=00:21:37.00 bitrate=N/A speed=20.6x    frame=31380 fps=495 q=-0.0 size=N/A time=00:21:48.80 bitrate=N/A speed=20.6x    frame=31633 fps=495 q=-0.0 size=N/A time=00:21:59.35 bitrate=N/A speed=20.6x    frame=31869 fps=494 q=-0.0 size=N/A time=00:22:09.20 bitrate=N/A speed=20.6x    frame=32107 fps=494 q=-0.0 size=N/A time=00:22:19.12 bitrate=N/A speed=20.6x    frame=32358 fps=494 q=-0.0 size=N/A time=00:22:29.59 bitrate=N/A speed=20.6x    frame=32630 fps=494 q=-0.0 size=N/A time=00:22:40.94 bitrate=N/A speed=20.6x    frame=32851 fps=494 q=-0.0 size=N/A time=00:22:50.16 bitrate=N/A speed=20.6x    frame=33111 fps=494 q=-0.0 size=N/A time=00:23:01.00 bitrate=N/A speed=20.6x    frame=33366 fps=494 q=-0.0 size=N/A time=00:23:11.64 bitrate=N/A speed=20.6x    frame=33606 fps=494 q=-0.0 size=N/A time=00:23:21.65 bitrate=N/A speed=20.6x    frame=33808 fps=493 q=-0.0 size=N/A time=00:23:30.07 bitrate=N/A speed=20.6x    frame=34025 fps=492 q=-0.0 size=N/A time=00:23:39.12 bitrate=N/A speed=20.5x    frame=34285 fps=493 q=-0.0 size=N/A time=00:23:49.97 bitrate=N/A speed=20.5x    frame=34543 fps=493 q=-0.0 size=N/A time=00:24:00.73 bitrate=N/A speed=20.5x    [Parsed_psnr_10 @ 0000022e487e9c80] PSNR y:49.702176 u:51.845771 v:51.515191 average:50.266281 min:37.687346 max:inf
[out#0/null @ 0000022e3c394a80] video:14873KiB audio:270688KiB subtitle:0KiB other streams:0KiB global headers:0KiB muxing overhead: unknown
frame=34613 fps=493 q=-0.0 Lsize=N/A time=00:24:03.65 bitrate=N/A speed=20.6x    
